<svg xmlns="http://www.w3.org/2000/svg" width="160" height="160" viewBox="0 0 160 160">
    <defs>
        <clipPath id="4ght665wja">
            <path data-name="사각형 2558" style="fill:none" d="M0 0h148.818v107.033H0z"/>
        </clipPath>
    </defs>
    <path data-name="사각형 2702" style="fill:transparent" d="M0 0h160v160H0z"/>
    <g data-name="그룹 11298">
        <g data-name="그룹 11297" transform="translate(6 26)" style="clip-path:url(#4ght665wja)">
            <path data-name="패스 58" d="M70.98 107.034a2.49 2.49 0 0 1-1.073-.243L41.672 93.305l-25.193 13.436a2.49 2.49 0 0 1-3.627-2.6l5.047-30.7L0 56.371l3.436-3.6 18.85 17.972a2.5 2.5 0 0 1 .737 2.206L18.579 99.98l21.858-11.657a2.477 2.477 0 0 1 2.244-.052l24.986 11.934-4.836-26.782a2.479 2.479 0 0 1 .707-2.216L83.69 51.42 56.785 49.6a2.488 2.488 0 0 1-2.073-1.4L42.924 23.89 31.136 48.203a2.48 2.48 0 0 1-2.025 1.394L3.685 51.79l-.428-4.957 24.016-2.073 13.411-27.659a2.489 2.489 0 0 1 4.48 0l13.4 27.632 31 2.1a2.487 2.487 0 0 1 1.575 4.257l-23.17 22.75 5.46 30.263a2.491 2.491 0 0 1-2.449 2.931"/>
            <path data-name="패스 59" d="M102.136 85.707a2.49 2.49 0 0 1-1.073-.243L76.64 73.8l2.144-4.491 20.038 9.57-3.873-21.466a2.483 2.483 0 0 1 .7-2.216l16.093-15.8-21.439-1.45a2.486 2.486 0 0 1-2.071-1.4l-9.429-19.436L69.38 36.55l-4.477-2.17 11.664-24.058a2.487 2.487 0 0 1 4.478 0L92.08 33.078l25.535 1.728a2.487 2.487 0 0 1 1.575 4.257l-19.111 18.762 4.505 24.952a2.488 2.488 0 0 1-2.449 2.931"/>
            <path data-name="패스 60" d="M131.018 76.792a2.49 2.49 0 0 1-1.073-.243l-24.423-11.664 2.144-4.491 20.038 9.57-3.873-21.463a2.483 2.483 0 0 1 .7-2.216l16.092-15.8-21.437-1.453a2.492 2.492 0 0 1-2.073-1.4l-9.425-19.438-9.426 19.441-4.48-2.17 11.667-24.064a2.489 2.489 0 0 1 4.48 0l11.033 22.762 25.533 1.726a2.487 2.487 0 0 1 1.577 4.257L128.961 48.91l4.506 24.952a2.488 2.488 0 0 1-2.449 2.931"/>
        </g>
    </g>
</svg>
