<svg xmlns="http://www.w3.org/2000/svg" width="175" height="165" viewBox="0 0 175 165">
    <defs>
        <clipPath id="2eyo7aufea">
            <path data-name="사각형 2542" style="fill:none" d="M0 0h171.361v161.174H0z"/>
        </clipPath>
    </defs>
    <path data-name="사각형 2700" style="fill:transparent" d="M0 0h175v165H0z"/>
    <path data-name="패스 42" d="M25.913 4.547h46.616v12.645h32.779L93.4 33.95l9.68 14.247H57.661V33.95H25.913z" transform="translate(33.163 7.468)" style="fill:#7ba0dc"/>
    <path data-name="사각형 2540" d="M56.323 2h5.507v82.519h-5.507z"/>
    <g data-name="그룹 11290">
        <g data-name="그룹 11289" style="clip-path:url(#2eyo7aufea)" transform="translate(2 2)">
            <path data-name="패스 43" d="M106.387 22.604h-5.507V12.367H58.894V6.86h44.74a2.754 2.754 0 0 1 2.753 2.753z"/>
            <path data-name="패스 44" d="M136.471 56.171H88.822a2.754 2.754 0 0 1-2.753-2.753V25.411a2.754 2.754 0 0 1 2.753-2.753h47.649a2.755 2.755 0 0 1 2.031 4.613l-10.409 11.352 10.517 13.07a2.753 2.753 0 0 1-2.143 4.48m-44.891-5.502h39.144l-8.4-10.434a2.754 2.754 0 0 1 .115-3.588l7.773-8.48H91.576z"/>
            <path data-name="사각형 2541" d="M58.894 36.663h29.929v5.507H58.894z"/>
            <path data-name="패스 45" d="m120.005 161.174-35.918-52.989H73.858a2.754 2.754 0 0 1-2.306-1.247L57.4 85.272h-4.385l-9.723 11.733a2.753 2.753 0 0 1-2.119 1H35.33L4.507 141.934 0 138.771l31.645-45.1a2.753 2.753 0 0 1 2.255-1.177h5.982L49.6 80.761a2.753 2.753 0 0 1 2.119-1h7.172a2.75 2.75 0 0 1 2.3 1.247l14.158 21.671h10.2a2.757 2.757 0 0 1 2.282 1.209l36.735 54.2z"/>
            <path data-name="패스 46" d="m167.054 148.977-16.267-20.42h-7.4a2.757 2.757 0 0 1-2.489-1.575l-11.052-23.345-9.662-8.954-14.298 20.335-4.5-3.165 16.104-22.917a2.754 2.754 0 0 1 4.123-.436l12.365 11.458a2.767 2.767 0 0 1 .619.841l10.529 22.251h6.989a2.746 2.746 0 0 1 2.152 1.037l17.094 21.46z"/>
            <path data-name="패스 47" d="M88.823 147.111a2.45 2.45 0 0 1-.337-.022 2.747 2.747 0 0 1-1.883-1.1L75.149 130.39l-14.207 15.806a2.656 2.656 0 0 1-2.081.912 2.763 2.763 0 0 1-2.059-.963l-12.443-14.539-14.7 14.7a2.675 2.675 0 0 1-2.066.8 2.771 2.771 0 0 1-1.989-.978l-15.41-18.324 4.214-3.544 13.482 16.024 14.676-14.673a2.645 2.645 0 0 1 2.053-.8 2.753 2.753 0 0 1 1.985.963l12.34 14.404 14.373-15.986a2.757 2.757 0 0 1 4.266.209l11.733 15.973 12.564-10.383 3.509 4.244-14.813 12.243a2.764 2.764 0 0 1-1.753.63"/>
        </g>
    </g>
</svg>
