<svg xmlns="http://www.w3.org/2000/svg" width="160" height="160" viewBox="0 0 160 160">
    <defs>
        <clipPath id="965uywsu4a">
            <path data-name="사각형 2563" style="fill:none" d="M0 0h132v132H0z"/>
        </clipPath>
    </defs>
    <path data-name="사각형 2703" style="fill:transparent" d="M0 0h160v160H0z"/>
    <g data-name="그룹 11301" transform="translate(14 13.999)" style="clip-path:url(#965uywsu4a)">
        <path data-name="패스 61" d="M66 131.999a66 66 0 1 1 66-66 66.075 66.075 0 0 1-66 66m0-127.24a61.239 61.239 0 1 0 61.24 61.24A61.311 61.311 0 0 0 66 4.759"/>
        <path data-name="패스 62" d="M65.037 53.182a12.861 12.861 0 1 1 12.86-12.86 12.875 12.875 0 0 1-12.86 12.86m0-20.962a8.1 8.1 0 1 0 8.1 8.1 8.111 8.111 0 0 0-8.1-8.1"/>
        <path data-name="패스 63" d="M30.869 92.324a12.862 12.862 0 1 1 12.862-12.857 12.877 12.877 0 0 1-12.862 12.857m0-20.964a8.1 8.1 0 1 0 8.1 8.1 8.11 8.11 0 0 0-8.1-8.1"/>
        <path data-name="패스 64" d="M79.769 113.291a12.861 12.861 0 1 1 12.86-12.862 12.876 12.876 0 0 1-12.86 12.862m0-20.962a8.1 8.1 0 1 0 8.1 8.1 8.11 8.11 0 0 0-8.1-8.1"/>
        <path data-name="패스 65" d="m75.158 34.616-4.257-2.13c4.075-8.159 28.909-18.835 31.729-20.025l1.851 4.385c-10.017 4.235-26.842 12.801-29.323 17.77"/>
        <path data-name="패스 66" d="M107.261 106.217a133.347 133.347 0 0 1-17.565-1.388l.7-4.709c5.493.819 21.028 2.439 26.853.139l1.748 4.429c-2.909 1.149-7.262 1.529-11.736 1.529"/>
        <path data-name="사각형 2561" d="m83.09 110.67 4.061-2.481 8.492 13.9-4.061 2.48z"/>
        <path data-name="패스 67" d="M69.469 98.803C51.28 94.149 40.531 87.479 40.082 87.196l2.532-4.033c.1.065 10.623 6.573 28.033 11.028z"/>
        <path data-name="패스 68" d="M75.356 91.464C65.789 79.88 62.792 52.222 62.67 51.047l4.733-.5c.029.272 2.968 27.4 11.626 37.881z"/>
        <path data-name="패스 69" d="m39.751 72.047-4.545-1.42c2.757-8.8 19.3-22.883 21.173-24.458l3.062 3.644c-4.806 4.037-17.708 15.9-19.69 22.234"/>
        <path data-name="패스 70" d="M21.472 75.244C12.229 70.585 1.706 59.073 1.264 58.586l3.521-3.2c.1.114 10.379 11.35 18.829 15.611z"/>
        <path data-name="패스 71" d="M14.87 107.084c-.927-9.825 7.869-20.116 8.245-20.55l3.6 3.115c-.08.091-7.843 9.2-7.11 16.99z"/>
        <path data-name="사각형 2562" d="M60.979 2.38h4.76v26.145h-4.76z"/>
    </g>
</svg>
