<svg xmlns="http://www.w3.org/2000/svg" width="180" height="193" viewBox="0 0 180 193">
    <defs>
        <clipPath id="yqxg06r29a">
            <path data-name="사각형 2556" style="fill:none" d="M0 0h171.36v188.22H0z"/>
        </clipPath>
    </defs>
    <path data-name="사각형 2701" style="fill:transparent" d="M0 0h180v193H0z"/>
    <g data-name="그룹 11295">
        <path data-name="사각형 2543" transform="translate(112.235 67.532)" style="fill:#f16dba" d="M0 0h25.471v36.468H0z"/>
        <path data-name="사각형 2544" transform="translate(40.383 43.045)" style="fill:#f16dba" d="M0 0h28.801v56.375H0z"/>
        <path data-name="사각형 2545" transform="translate(111.278 46.306)" style="fill:#f16dba" d="M0 0h13.925v16.108H0z"/>
        <path data-name="사각형 2546" transform="translate(72.242 28.987)" style="fill:#f16dba" d="M0 0h39.211v75.012H0z"/>
        <g data-name="그룹 11294">
            <g data-name="그룹 11293" style="clip-path:url(#yqxg06r29a)" transform="translate(5 2.981)">
                <path data-name="패스 48" d="M37.9 99.324h-6.088V38.803a3.045 3.045 0 0 1 3.044-3.044h28.376v6.088H37.9z"/>
                <path data-name="사각형 2547" d="M3.205 96.28h165.672v6.088H3.205z"/>
                <path data-name="패스 49" d="M136.244 102.54h-6.088V64.97H107.87v-6.088h25.33a3.045 3.045 0 0 1 3.044 3.044z"/>
                <path data-name="패스 50" d="M123.579 60.319h-6.087v-11.03h-11.635v-6.088h14.679a3.045 3.045 0 0 1 3.044 3.044z"/>
                <path data-name="패스 51" d="M96.76 27.921h-6.083v-10.4h-10v10.4h-6.084V14.477a3.043 3.043 0 0 1 3.044-3.039H93.72a3.045 3.045 0 0 1 3.04 3.039z"/>
                <path data-name="사각형 2548" d="M82.636 0h6.088v12.867h-6.088z"/>
                <path data-name="패스 52" d="M108.628 99.324h-6.087V30.961H68.818v68.363H62.73V27.921a3.043 3.043 0 0 1 3.039-3.044h39.816a3.043 3.043 0 0 1 3.044 3.044z"/>
                <path data-name="사각형 2549" d="M77.637 39.984h16.084v6.088H77.637z"/>
                <path data-name="사각형 2550" d="M77.637 54.862h16.084v6.088H77.637z"/>
                <path data-name="사각형 2551" d="M77.637 69.74h16.084v6.088H77.637z"/>
                <path data-name="사각형 2552" d="M45.248 52.308h10.354v6.088H45.248z"/>
                <path data-name="사각형 2553" d="M45.248 67.186h10.354v6.088H45.248z"/>
                <path data-name="사각형 2554" d="M45.248 82.064h10.354v6.088H45.248z"/>
                <path data-name="패스 53" d="M85.68 188.22a85.685 85.685 0 0 1-68.8-136.758l4.885 3.633a79.594 79.594 0 1 0 143.5 47.445 80.032 80.032 0 0 0-45.36-71.876l2.62-5.493A85.692 85.692 0 0 1 85.68 188.22"/>
                <path data-name="패스 54" d="M151.005 156.857c-19.941-10.5-43.037-15.838-66.876-15.472a140.553 140.553 0 0 0-61.873 15.119l-2.783-5.41a146.658 146.658 0 0 1 64.566-15.8c24.791-.356 48.964 5.206 69.806 16.174z"/>
                <path data-name="패스 55" d="M85.68 184.573c-25.5 0-45.467-38.581-45.467-87.83h6.086c0 45.073 17.666 81.743 39.38 81.743s39.382-36.67 39.382-81.743h6.088c0 49.249-19.975 87.83-45.47 87.83"/>
                <path data-name="사각형 2555" d="M82.636 99.324h6.088v82.205h-6.088z"/>
            </g>
        </g>
    </g>
</svg>
