<svg xmlns="http://www.w3.org/2000/svg" width="160" height="160" viewBox="0 0 160 160">
    <path data-name="사각형 2704" style="fill:transparent" d="M0 0h160v160H0z"/>
    <g data-name="그룹 11335">
        <path data-name="사각형 2564" d="M81.714 3h5.032v41.551h-5.032z"/>
        <path data-name="사각형 2565" d="m42.608 13.907 4.347-2.536 24.251 41.574-4.347 2.536z"/>
        <path data-name="사각형 2566" d="m89.978 61.218 14.303-24.26 4.337 2.558-14.304 24.259z"/>
        <path data-name="사각형 2567" d="m110.082 62.276 41.88-22.278 2.364 4.443-41.88 22.278z"/>
        <path data-name="사각형 2568" d="M104.612 77.27h29.302v5.032h-29.302z"/>
        <path data-name="사각형 2569" d="m108.336 96.256 2.526-4.352 43.549 25.274-2.526 4.352z"/>
        <path data-name="사각형 2570" d="m89.96 95.319 4.38-2.478 14.294 25.265-4.38 2.478z"/>
        <path data-name="사각형 2571" d="M81.714 105h5.032v52.57h-5.032z"/>
        <path data-name="사각형 2572" d="m40.071 56.284 2.793-4.187 24.929 16.63L65 72.913z"/>
        <path data-name="사각형 2573" d="M15.378 117.18 57.6 91.926l2.582 4.317-42.222 25.255z"/>
        <path data-name="사각형 2574" d="m51.777 126.277 23.436-35.9 4.216 2.751-23.437 35.9z"/>
        <path data-name="사각형 2575" d="M5.591 77.272h45.873v5.032H5.591z"/>
        <path data-name="사각형 2576" d="M130.32 23.54h10.417v5.032H130.32z"/>
        <path data-name="사각형 2577" d="M107.619 23.54h10.417v5.032h-10.417z"/>
        <path data-name="사각형 2578" d="M121.69 9.436h5.032v9.076h-5.032z"/>
        <path data-name="사각형 2579" d="M121.69 32.25h5.032v10.427h-5.032z"/>
        <path data-name="사각형 2580" d="m22.992 27.818 7.363-7.363 3.558 3.557-7.363 7.364z"/>
        <path data-name="사각형 2581" d="m6.853 43.957 7.364-7.364 3.558 3.558-7.364 7.364z"/>
        <path data-name="사각형 2582" d="m6.853 24.011 3.558-3.558 6.414 6.415-3.557 3.558z"/>
        <path data-name="사각형 2583" d="m22.984 40.143 3.558-3.558 7.374 7.374-3.558 3.558z"/>
        <path data-name="사각형 2584" d="M118.488 127.652h5.032v7.148h-5.032z"/>
        <path data-name="사각형 2585" d="M118.488 141.306h5.032v7.146h-5.032z"/>
        <path data-name="사각형 2586" d="M110.803 135.774h7.148v5.032h-7.148z"/>
        <path data-name="사각형 2587" d="M124.128 135.774h7.146v5.032h-7.146z"/>
    </g>
</svg>
