<svg xmlns="http://www.w3.org/2000/svg" xmlns:xlink="http://www.w3.org/1999/xlink" width="260" height="52" viewBox="0 0 260 52">
  <defs>
    <style>
      .cls-1 {
        fill: #a9a9a9;
      }

      .cls-2 {
        fill: rgba(226,226,226,0);
      }

      .cls-3 {
        clip-path: url(#clip-path);
      }
    </style>
    <clipPath id="clip-path">
      <rect id="사각형_2604" data-name="사각형 2604" class="cls-1" width="255.24" height="51.151"/>
    </clipPath>
  </defs>
  <g id="icon_frame" transform="translate(-410 -1162)">
    <rect id="사각형_2693" data-name="사각형 2693" class="cls-2" width="260" height="52" transform="translate(410 1162)"/>
    <g id="그룹_11315" data-name="그룹 11315" transform="translate(412 1162.425)">
      <g id="그룹_11314" data-name="그룹 11314" class="cls-3" transform="translate(0 0)">
        <path id="패스_113" data-name="패스 113" class="cls-1" d="M103.382,22.088A44.612,44.612,0,0,0,90.247,9.43,23.728,23.728,0,0,0,77.232,5.479a18.713,18.713,0,0,0-13.059,6C58.5,17.7,58.408,27.2,62.187,34.4c3.6,6.864,11.464,11.267,18.863,7.45A71.329,71.329,0,0,0,98.07,29.227a39.81,39.81,0,0,0,5.441-6.284c.712-1.088-2.38-2.861-3.137-1.7-3.591,5.491-9.221,9.989-14.5,13.72a52.837,52.837,0,0,1-8.039,5.012,9.6,9.6,0,0,1-4.869.937c-2.831-.27-5.1-2.225-6.672-4.478-4.109-5.9-4.739-14.437-.955-20.639A17.048,17.048,0,0,1,75.821,8.3,16.576,16.576,0,0,1,87.357,10.02,37.516,37.516,0,0,1,100.506,22.1a2.741,2.741,0,0,0,2.217,1.205c.7-.069,1.111-.541.658-1.212" transform="translate(25.496 2.341)"/>
        <path id="패스_114" data-name="패스 114" class="cls-1" d="M193.058,42.717c10.549-.051,20.075-4.725,28.522-10.7,3.875-2.743,7.549-5.747,11.266-8.7a65.529,65.529,0,0,1,9.539-6.735c2.781-1.492,6.008-2.573,9.06-1.222l-.97-.8c-.3-.3.21.307.3.447a13,13,0,0,1,.687,1.272,14.625,14.625,0,0,1,1.114,8.189c-.583,3.427-2.754,6.381-6.345,6.929-5.813.888-11.5-3.415-15.869-6.611a113.761,113.761,0,0,0-10.186-6.7,66.023,66.023,0,0,0-24.557-8.8A54.71,54.71,0,0,0,165.8,14.207c-16.026,7.409-28.822,20.625-39.572,34.319l2.432,2.524c0-1.374-1.835-2.856-2.646-3.855q-2.26-2.78-4.616-5.48c-2.794-3.188-5.7-6.285-8.741-9.241a108.43,108.43,0,0,0-16.344-13.3C87.245,13.28,76.948,9.184,66.06,8.718a56.9,56.9,0,0,0-25.81,5.366,87.045,87.045,0,0,0-10.957,6.007c-3.877,2.477-7.44,5.439-11.356,7.842-3.748,2.3-9.527,5.173-13.856,2.627-.908-.533-.181-.417-.148.07-.014-.228-.384-.63-.488-.837a9.942,9.942,0,0,1-.824-2.559,13.873,13.873,0,0,1,.08-5.37,13.638,13.638,0,0,1,1.953-4.818,4.547,4.547,0,0,1,3.877-2.316c3.675-.256,7.232,2.068,10.109,4.066C27.593,25.02,35.383,32.7,45.178,37.709a43.149,43.149,0,0,0,17.412,4.959c6.387.318,13-1.207,18.993-3.308,11.585-4.061,21.959-11.15,31.024-19.329A122.8,122.8,0,0,0,127.964,3.554c.234-.3.467-.61.69-.921l-2.2-2.117a118.819,118.819,0,0,0,12.786,14.461c9,8.864,19.2,16.794,30.763,22.022a62.6,62.6,0,0,0,23.051,5.718c.031,0-.934-1.348-1.044-1.468-.314-.336-.88-1.124-1.388-1.145-23.351-1.018-44.163-16.607-58.838-33.79-.874-1.022-1.713-2.043-2.556-3.116l-.43-.557c-.206-.263-.214-.278-.14-.181-.083-.107-.163-.216-.243-.324-.161-.223-2.025-2.356-2.195-2.117a105.809,105.809,0,0,1-10.81,12.4c-8.176,8.237-17.461,15.586-27.881,20.771-11.665,5.8-25.154,9.09-37.836,4.8C38.564,34.222,29.756,26.351,20.627,19.282c-3.248-2.517-6.705-5.253-10.649-6.585a9.6,9.6,0,0,0-4.409-.523,4.709,4.709,0,0,0-3.612,2.679C-1.789,21.028-.146,30.176,6.794,33.4c4.438,2.063,9.806-.544,13.576-2.857,3.914-2.4,7.479-5.364,11.356-7.842A72.715,72.715,0,0,1,55.08,12.519a52.426,52.426,0,0,1,28.694,1.842c13.34,4.7,24.672,13.947,34.167,24.22q2.268,2.454,4.422,5.01,1.187,1.4,2.342,2.833c.468.58,1.518,1.442,1.518,2.19,0,.427,2.285,2.714,2.432,2.524,12.919-16.452,29.4-32.994,50.4-38.143,13.59-3.333,27.394-.68,39.68,5.666a130.92,130.92,0,0,1,15.625,10.062c4.7,3.34,14,8.808,18.836,2.691,3.185-4.029,2.32-10.447-.28-14.524-1.5-2.357-3.367-4.6-6.311-4.776a13.3,13.3,0,0,0-7.139,2.127c-6.491,3.66-11.99,9.005-17.944,13.437-7.155,5.329-15.045,10.079-23.922,11.764a38.288,38.288,0,0,1-6.968.66,16.068,16.068,0,0,0,1.044,1.466c.3.32.9,1.149,1.388,1.147" transform="translate(0 0)"/>
        <path id="패스_115" data-name="패스 115" class="cls-1" d="M90.782,23.6c7.148-10.573,23.229-21.867,34.751-10.515,5.307,5.23,4.74,14.138,1.411,20.277a14.132,14.132,0,0,1-7.036,6.667c-3.681,1.416-7.072.178-10.286-1.745A75.625,75.625,0,0,1,94.46,26.6a34.06,34.06,0,0,1-4.376-5.132c-.236-.36-.894-1.165-1.318-.68-.4.458.481,1.8.7,2.132a37.014,37.014,0,0,0,4.229,5.095,77.01,77.01,0,0,0,13.092,10.869c3.815,2.547,8.024,5.613,12.869,4.79a13,13,0,0,0,8.3-5.853,21.81,21.81,0,0,0,.561-23.1,19.963,19.963,0,0,0-10.9-8.693A18.485,18.485,0,0,0,104.261,7.1c-6.188,2.814-11.7,8.069-15.495,13.684-.528.781,1.466,3.624,2.016,2.811" transform="translate(37.933 2.239)"/>
      </g>
    </g>
  </g>
</svg>
