<svg xmlns="http://www.w3.org/2000/svg" width="174" height="40" viewBox="0 0 174 40">
    <path data-name="사각형 3" style="fill:none" d="M0 0h174v40H0z"/>
    <g data-name="그룹 9">
        <path data-name="패스 19" d="M33.358 19.556A6.673 6.673 0 0 0 26.682 13H7.653V4.5A4.573 4.573 0 0 0 3.072 0H0v33.334A6.676 6.676 0 0 0 6.683 40h20a6.669 6.669 0 0 0 6.675-6.595zm-7.649 13.719a2.879 2.879 0 0 1-2.883 2.876H10.535a2.88 2.88 0 0 1-2.885-2.876V16.852h15.218a2.876 2.876 0 0 1 2.84 2.873z" style="fill:#fff" transform="translate(.033)"/>
        <path data-name="패스 20" d="M376.321 38.252a6.674 6.674 0 0 0-6.68-6.556h-20a6.67 6.67 0 0 0-6.674 6.5v13.829a6.672 6.672 0 0 0 6.682 6.664h20a6.671 6.671 0 0 0 6.671-6.589zm-7.648 13.718a2.879 2.879 0 0 1-2.884 2.876H353.5a2.88 2.88 0 0 1-2.885-2.876V38.42a2.879 2.879 0 0 1 2.843-2.875h12.379a2.88 2.88 0 0 1 2.84 2.875z" transform="translate(-202.321 -18.701)" style="fill:#fff"/>
        <path data-name="패스 21" d="M276.382 54.846h-12.289a2.878 2.878 0 0 1-2.882-2.876V38.42a2.877 2.877 0 0 1 2.842-2.875h12.372a2.88 2.88 0 0 1 2.84 2.875v2.73h7.649v-2.9a6.673 6.673 0 0 0-6.677-6.556h-20a6.672 6.672 0 0 0-6.674 6.5l-.007 13.829a6.674 6.674 0 0 0 6.682 6.664h20a6.671 6.671 0 0 0 6.677-6.592v-3.666h-7.649v3.541a2.88 2.88 0 0 1-2.884 2.876" transform="translate(-149.57 -18.701)" style="fill:#fff"/>
        <path data-name="패스 22" d="M97.077 51.97v-5.185h25.707v-8.533a6.674 6.674 0 0 0-6.677-6.556h-20a6.672 6.672 0 0 0-6.675 6.5v13.837a6.663 6.663 0 0 0 6.675 6.661l26.817-.013V54.85H99.962a2.88 2.88 0 0 1-2.886-2.876m0-13.55a2.879 2.879 0 0 1 2.843-2.875h12.373a2.878 2.878 0 0 1 2.84 2.875v4.533H97.076v-4.533" transform="translate(-52.734 -18.701)" style="fill:#fff"/>
        <path data-name="패스 23" d="m216.873 72.715 6.477 7.244h8.783L221.265 67.8z" transform="translate(-127.926 -40.005)" style="fill:#fff"/>
        <path data-name="패스 24" d="M232.133 31.642h-8.783l-6.477 7.244 4.391 4.912z" transform="translate(-127.926 -18.67)" style="fill:#fff"/>
        <path data-name="패스 25" d="m203.255 57.481 4.391 4.91 4.391-4.91-4.391-4.912z" transform="translate(-119.891 -31.017)" style="fill:#fff"/>
        <path data-name="패스 26" d="M182.616 31.642h-8.783L185.9 45.134l4.39-4.912z" transform="translate(-102.532 -18.67)" style="fill:#adafb1"/>
        <path data-name="패스 27" d="M173.833 78.039h8.783l7.67-8.58-4.39-4.91z" transform="translate(-102.532 -38.085)" style="fill:#adafb1"/>
    </g>
</svg>
