<svg xmlns="http://www.w3.org/2000/svg" xmlns:xlink="http://www.w3.org/1999/xlink" width="576" height="54.499" viewBox="0 0 576 54.499">
  <defs>
    <style>
      .cls-1 {
        fill: none;
      }

      .cls-2 {
        clip-path: url(#clip-path);
      }

      .cls-3 {
        fill: #004092;
      }

      .cls-4 {
        fill: #3a1673;
      }

      .cls-5 {
        fill: #d4006d;
      }
    </style>
    <clipPath id="clip-path">
      <rect id="사각형_2593" data-name="사각형 2593" class="cls-1" width="236.449" height="54.499"/>
    </clipPath>
  </defs>
  <g id="con01_03_04_img" transform="translate(-252 -2503.845)">
    <g id="그룹_11317" data-name="그룹 11317" transform="translate(252 2503.845)">
      <g id="그룹_11304" data-name="그룹 11304" class="cls-2" transform="translate(0 0)">
        <path id="패스_72" data-name="패스 72" class="cls-3" d="M45.335,26.642a9.079,9.079,0,0,0-9.074-8.93H10.4V6.138l0,0A6.225,6.225,0,0,0,4.174,0H4.156L.006,0,0,45.417A9.082,9.082,0,0,0,9.082,54.5H36.261a9.079,9.079,0,0,0,9.076-8.985l.016-.016V26.66ZM34.941,45.337a3.919,3.919,0,0,1-3.92,3.919h-16.7A3.919,3.919,0,0,1,10.4,45.337V22.958H31.08a3.918,3.918,0,0,1,3.861,3.917Z" transform="translate(0 0)"/>
        <path id="패스_73" data-name="패스 73" class="cls-3" d="M388.274,40.7a9.077,9.077,0,0,0-9.074-8.93H352.021a9.075,9.075,0,0,0-9.071,8.862l-.006.005-.005,18.837a9.081,9.081,0,0,0,9.081,9.082H379.2a9.079,9.079,0,0,0,9.077-8.985l.016-.017V40.721ZM377.881,59.4a3.92,3.92,0,0,1-3.92,3.92h-16.7a3.919,3.919,0,0,1-3.92-3.92V40.935a3.919,3.919,0,0,1,3.864-3.917h16.814a3.919,3.919,0,0,1,3.862,3.916Z" transform="translate(-151.844 -14.069)"/>
        <path id="패스_74" data-name="패스 74" class="cls-3" d="M284.555,63.317h-16.7a3.92,3.92,0,0,1-3.92-3.92V40.934a3.919,3.919,0,0,1,3.865-3.917h16.813a3.917,3.917,0,0,1,3.861,3.916v3.721h10.413V40.72l-.018-.017a9.078,9.078,0,0,0-9.074-8.93H262.616a9.076,9.076,0,0,0-9.071,8.862l-.007.005-.005,18.837a9.083,9.083,0,0,0,9.082,9.083H289.8a9.078,9.078,0,0,0,9.076-8.985l.017-.017V54.573H288.474V59.4a3.919,3.919,0,0,1-3.919,3.92" transform="translate(-112.258 -14.068)"/>
        <path id="패스_75" data-name="패스 75" class="cls-3" d="M99.811,59.4l0-.053V52.333h34.955V40.721l-.02-.017a9.076,9.076,0,0,0-9.073-8.93H98.492a9.077,9.077,0,0,0-9.071,8.862l-.006.005V59.484a9.074,9.074,0,0,0,9.077,9.077l36.448-.018V63.321l-31.208,0a3.92,3.92,0,0,1-3.921-3.92m0-18.407,0-.056a3.919,3.919,0,0,1,3.865-3.916h16.814a3.918,3.918,0,0,1,3.861,3.916c0,.09,0,6.177,0,6.177H99.809Z" transform="translate(-39.59 -14.069)"/>
        <path id="패스_76" data-name="패스 76" class="cls-3" d="M216.859,74.661l8.8,9.871H237.6L222.827,67.969Z" transform="translate(-96.019 -30.095)"/>
        <path id="패스_77" data-name="패스 77" class="cls-3" d="M237.6,31.718H225.663l-8.8,9.872,5.968,6.692Z" transform="translate(-96.019 -14.044)"/>
        <path id="패스_78" data-name="패스 78" class="cls-4" d="M203.241,59.389l5.967,6.692,5.968-6.692L209.208,52.7Z" transform="translate(-89.989 -23.333)"/>
        <path id="패스_79" data-name="패스 79" class="cls-5" d="M185.758,31.718H173.822L190.215,50.1l5.967-6.692Z" transform="translate(-76.963 -14.044)"/>
        <path id="패스_80" data-name="패스 80" class="cls-5" d="M173.822,83.087h11.936L196.183,71.4l-5.967-6.692Z" transform="translate(-76.963 -28.65)"/>
      </g>
    </g>
    <g id="그룹_11337" data-name="그룹 11337" transform="translate(540 2524.854)">
      <g id="그룹_11338" data-name="그룹 11338" transform="translate(-4.5 -0.523)">
        <path id="패스_130" data-name="패스 130" d="M23.67,2.8a11.536,11.536,0,0,0-.27,1.542,14.064,14.064,0,0,0-.09,1.509V14.8a22.037,22.037,0,0,1-.252,3.627q-.252,1.473-.539,2.764l-2.3.252a17.134,17.134,0,0,1-.144-1.92q-.04-1.168-.039-2.39v-4.92h-.108c-.332.048-.7.114-1.093.2a3.618,3.618,0,0,0-1.24.557l-1.366-.611V14.62c0,.431-.018.874-.054,1.327s-.084.9-.144,1.348-.126.862-.2,1.258-.144.749-.213,1.06l-2.408.32a2.844,2.844,0,0,1-.09-.554q-.018-.27-.054-.557-1.8-.036-3.63.018t-3.483.126c-.045.192-.09.377-.126.557a4.056,4.056,0,0,1-.126.485l-2.333.323c-.075-.551-.138-1.144-.2-1.779s-.09-1.276-.09-1.923V8.873a4.346,4.346,0,0,0-.1-1.006,1.474,1.474,0,0,0-.434-.737,2.58,2.58,0,0,0-.931-.521A13.428,13.428,0,0,0,0,6.178l.575-1.15q1.509.144,3.016.305a28.349,28.349,0,0,1,3.126.521q-.144.719-.234,1.455a11.732,11.732,0,0,0-.09,1.419v1.363c1.006-.021,2.033-.066,3.09-.126s2.2-.147,3.447-.267V7.579a3.418,3.418,0,0,0-.126-.988,1.374,1.374,0,0,0-.5-.7,3.824,3.824,0,0,0-1.042-.521,16.754,16.754,0,0,0-1.74-.482l.536-1.222q1.653.175,3.288.374t3.288.485c-.12.5-.219,1-.29,1.491a10.249,10.249,0,0,0-.108,1.419v3.052c.455.048.907.081,1.348.09s.868.006,1.276-.015c.144,0,.308-.009.5-.021s.416-.018.68-.018V5.89a2.383,2.383,0,0,0-.773-1.851,7.033,7.033,0,0,0-2.995-1.2l.5-1.258q2.084.252,3.68.539t3.18.683ZM12.931,11.637c-1.147-.024-2.24-.018-3.27.018s-2.12.09-3.267.162v3.267c0,.338-.018.689-.054,1.06s-.078.749-.126,1.132q1.617-.036,3.27-.108t3.447-.252ZM29.6,22.717q-.036.341-.072.611a3.706,3.706,0,0,0-.036.485V28.59q0,.539-.036,1.222c-.024.455-.069.916-.126,1.384s-.126.907-.2,1.33-.141.77-.213,1.057l-2.623.431c-.069-.719-.144-1.509-.216-2.369s-.1-1.605-.1-2.228V23.957q-1.078-.036-2.408-.018t-2.692.072q-1.366.054-2.677.144c-.874.06-1.68.126-2.423.2-.243.024-.47.048-.686.072a5.234,5.234,0,0,0-.68.126,4.78,4.78,0,0,0-.773.27c-.276.12-.6.264-.952.431q-1.294-.539-2.5-1.078a18.394,18.394,0,0,1-2.027-1.042L8.8,22.125a17.515,17.515,0,0,0,2.749.4q1.527.108,2.746.108,1.9,0,3.953-.072t4.076-.18q2.03-.108,3.917-.234t3.465-.305q-.072.539-.108.88m.341-19.879a10.1,10.1,0,0,0-.126,1.506v8.873a30.324,30.324,0,0,1-.234,3.932q-.234,1.779-.521,3.609l-2.408.359c-.045-.907-.09-1.812-.126-2.71s-.051-1.755-.051-2.569V4.384a2.51,2.51,0,0,0-.2-1.024,2.252,2.252,0,0,0-.662-.827,4.748,4.748,0,0,0-1.258-.683,15.687,15.687,0,0,0-2.012-.593L22.843,0q4.169.575,7.364,1.294c-.1.479-.189.994-.27,1.545" transform="translate(0 0)"/>
        <path id="패스_131" data-name="패스 131" d="M43.606,22.845q-1.8-.108-4.04-.18t-4.618,0q-1.545.036-3.519.09l-3.95.108q-1.976.054-3.752.108c-1.189.036-2.15.078-2.893.126a7.7,7.7,0,0,0-1.542.287,7.819,7.819,0,0,0-1.728.827q-.786-.252-1.635-.575c-.56-.216-1.111-.431-1.647-.647s-1.063-.425-1.566-.629-.943-.4-1.327-.593l.68-1.114c.407.1.916.186,1.527.27s1.246.15,1.9.2,1.294.09,1.9.126,1.108.054,1.491.054q1.361.036,3.465,0t4.327-.108c1.482-.048,2.923-.1,4.309-.144s2.524-.1,3.411-.144c1.7-.093,3.342-.2,4.923-.323s3.159-.3,4.741-.536Zm-3.914-6.9Q37.1,13.828,34.25,11.89A40.392,40.392,0,0,0,27.908,8.4a35.489,35.489,0,0,1-6.067,5.1,42.3,42.3,0,0,1-6.9,3.734L13.9,16.056a32.707,32.707,0,0,0,4.037-2.315A33.16,33.16,0,0,0,21.607,10.9a26.21,26.21,0,0,0,3.052-3.213,17.4,17.4,0,0,0,2.174-3.45,2.521,2.521,0,0,0,.27-.683c.012-.12-.114-.264-.377-.428-.216-.147-.5-.323-.862-.539s-.815-.467-1.363-.755L25.4.72A64.4,64.4,0,0,1,32.076,2.8a19.01,19.01,0,0,1-1.384,2.153Q29.92,6,29.1,7.042q3.014,1.15,6.394,2.8T42.348,13.4Z" transform="translate(22.717 1.436)"/>
        <path id="패스_132" data-name="패스 132" d="M40.614,15.5a10.878,10.878,0,0,0-.108,1.473V20.82c1.078-.045,2.078-.084,3-.1s1.7-.06,2.351-.108c1.7-.1,3.339-.2,4.92-.323s3.159-.3,4.744-.542l-.47,2.8q-1.792-.108-4.037-.18t-4.618,0q-1.545.036-3.519.09l-3.953.108q-1.972.054-3.749.108c-1.189.036-2.15.078-2.893.126a7.686,7.686,0,0,0-1.545.287,7.869,7.869,0,0,0-1.725.827c-.527-.168-1.069-.359-1.635-.575s-1.111-.431-1.65-.647-1.057-.431-1.563-.647l-1.33-.572.683-1.114c.407.1.916.186,1.527.267s1.249.153,1.9.2,1.294.093,1.9.126S29.959,21,30.343,21c.839.027,1.854.033,3.055.018s2.453-.039,3.773-.09V17.121a3.715,3.715,0,0,0-.114-1,1.32,1.32,0,0,0-.41-.668,2.484,2.484,0,0,0-.9-.449,14.386,14.386,0,0,0-1.563-.356l.542-1.15c1,0,2,.036,2.995.108a26.281,26.281,0,0,1,3.144.431c-.1.479-.18.967-.252,1.47m9.23-9.553q-.431,2.084-.967,4.115t-1.15,3.9q-.611,1.864-1.258,3.447H43.917c.311-1.222.608-2.483.88-3.788s.509-2.593.7-3.863q-3.09.436-5.639.7t-4.6.449c-.264.024-.509.048-.734.072a2.99,2.99,0,0,0-.668.147c-.213.069-.452.159-.716.267s-.566.246-.9.413q-1.37-.431-2.818-1.024A19.4,19.4,0,0,1,27.042,9.65l.752-1.075a7.821,7.821,0,0,0,1.47.323c.554.072,1.12.126,1.707.162s1.156.06,1.707.072,1.027.018,1.434.018c1.009-.024,1.97-.06,2.893-.108s1.848-.108,2.785-.18,1.881-.162,2.854-.27,2.006-.234,3.105-.377q.18-1.366.305-2.623t.2-2.3c-.815,0-1.716.012-2.71.036s-1.982.054-2.965.09-1.914.084-2.8.144-1.629.114-2.228.162c-.264.024-.5.045-.719.072a3.411,3.411,0,0,0-.662.144c-.231.072-.476.162-.737.267s-.578.246-.931.416c-.413-.12-.865-.279-1.369-.47s-1.006-.386-1.509-.59-.982-.407-1.434-.611a9.288,9.288,0,0,1-1.147-.593l.752-1.006a12.612,12.612,0,0,0,1.384.252q.8.108,1.668.18c.575.048,1.129.084,1.671.108s1.012.036,1.419.036Q37.921,1.893,42,1.714A73.534,73.534,0,0,0,49.664.995l.934.827q-.319,2.048-.755,4.13" transform="translate(45.548 1.985)"/>
        <path id="패스_133" data-name="패스 133" d="M48.386,3.773a4.378,4.378,0,0,0-.216.824,9.268,9.268,0,0,1,2.656.809,7.906,7.906,0,0,1,2.1,1.455A6.4,6.4,0,0,1,54.295,8.8a5.539,5.539,0,0,1-.144,4.83,6.808,6.808,0,0,1-1.725,2.1,8.434,8.434,0,0,1-2.605,1.416,9.939,9.939,0,0,1-3.267.521A9.78,9.78,0,0,1,43.3,17.15a8.475,8.475,0,0,1-2.587-1.416,6.544,6.544,0,0,1-1.707-2.1,5.6,5.6,0,0,1-.611-2.569,5.365,5.365,0,0,1,.542-2.369A6.725,6.725,0,0,1,40.411,6.7a7.812,7.812,0,0,1,2.246-1.455,9.307,9.307,0,0,1,2.89-.719,1.207,1.207,0,0,0-.4-.752A3.111,3.111,0,0,0,44,3.234l.542-1.042c.767.144,1.464.27,2.1.377s1.321.246,2.063.413c-.12.264-.228.527-.32.791m2.426,5.3a4.928,4.928,0,0,0-1.006-1.563,4.731,4.731,0,0,0-1.476-1.024,4.288,4.288,0,0,0-1.776-.377,4.4,4.4,0,0,0-1.815.377,4.526,4.526,0,0,0-1.452,1.024,4.747,4.747,0,0,0-.97,1.563,5.4,5.4,0,0,0-.359,1.991,5.138,5.138,0,0,0,.359,1.959,4.623,4.623,0,0,0,.97,1.509,4.3,4.3,0,0,0,1.452.97,5.027,5.027,0,0,0,3.627,0,4.414,4.414,0,0,0,1.473-.97,4.523,4.523,0,0,0,.988-1.509,5.138,5.138,0,0,0,.362-1.959,5.172,5.172,0,0,0-.377-1.991m13.7,13.916c-.1.791-.189,1.593-.27,2.408s-.162,1.62-.234,2.423-.144,1.539-.216,2.21l1.33-.144-.5,2.441c-1.006-.072-2.078-.117-3.213-.144s-2.294-.039-3.471-.054-2.345-.006-3.516.021-2.312.06-3.414.1c-.024.24-.06.479-.108.722s-.093.464-.144.68l-2.333.359c-.12-.575-.225-1.186-.305-1.833s-.153-1.258-.2-1.83l-.431-5.711a9.81,9.81,0,0,0-.165-1.06,1.22,1.22,0,0,0-.356-.665,2.234,2.234,0,0,0-.755-.431q-.485-.18-1.312-.4l.542-1.219q2.511.283,4.866.374c1.566.063,3.129.084,4.684.072s3.144-.066,4.762-.159,3.309-.219,5.079-.359q-.175,1-.32,2.189m-3.627.036c-.7-.024-1.485-.042-2.372-.054s-1.791-.006-2.71.018-1.8.054-2.641.09-1.557.078-2.156.126l.144,6.5v.862c1.653,0,3.291-.027,4.92-.072s3.2-.132,4.708-.252ZM64.98,2.839a11.741,11.741,0,0,0-.108,1.506v9.268c0,.431-.018.922-.057,1.47s-.075,1.108-.126,1.671-.114,1.1-.195,1.6-.165.922-.234,1.258l-2.551.287c-.1-.623-.165-1.348-.216-2.174s-.069-1.563-.069-2.21V4.384a2.076,2.076,0,0,0-1.063-1.851,12.931,12.931,0,0,0-3.573-1.276L57.328,0q2.156.252,4.237.611c1.39.24,2.62.455,3.7.647a14.683,14.683,0,0,0-.287,1.581" transform="translate(76.593 0)"/>
        <path id="패스_134" data-name="패스 134" d="M68.248,5.89c-.767-.024-1.494-.036-2.192-.036H64.049a35.839,35.839,0,0,1-2.911,5.423q2.084,1.366,4.273,3.055t4.058,3.375L66.7,19.864q-1.469-1.869-3.2-3.719a35.95,35.95,0,0,0-3.483-3.285,27.439,27.439,0,0,1-4.112,4.4,27.422,27.422,0,0,1-5.157,3.468l-1.042-1.042a23.59,23.59,0,0,0,3.755-2.929,25.476,25.476,0,0,0,3.016-3.429,24.693,24.693,0,0,0,2.228-3.662A19.47,19.47,0,0,0,60.1,6q-.611.072-1.2.09t-1.168.054a7.17,7.17,0,0,0-1.2.234,5.527,5.527,0,0,0-1.384.7q-1.294-.5-2.71-1.1a23.522,23.522,0,0,1-2.321-1.093l.647-.97a10.75,10.75,0,0,0,1.4.231q.827.094,1.689.165c.575.045,1.126.084,1.653.1s.967.039,1.327.039c.886,0,1.728-.018,2.516-.057s1.641-.087,2.551-.159,1.926-.174,3.052-.305,2.444-.293,3.953-.485Zm8.208,16.432q-.018.341-.054.611a3.706,3.706,0,0,0-.036.485V28.59q0,.539-.054,1.222c-.036.455-.084.916-.147,1.384s-.129.907-.213,1.33-.162.77-.234,1.057l-2.548.431a23.258,23.258,0,0,1-.27-2.369q-.094-1.294-.093-2.228V23.562q-2.264-.072-4.791.054c-1.692.084-3.276.2-4.762.341a12.313,12.313,0,0,0-1.381.216,7.341,7.341,0,0,0-1.707.683q-1.294-.539-2.495-1.078a18.2,18.2,0,0,1-2.03-1.042l.683-1.006a16.661,16.661,0,0,0,2.728.4c1.006.072,1.914.108,2.731.108q3.8-.036,7.648-.252t7.109-.539c-.045.362-.075.653-.087.88m.27-19.483a11.74,11.74,0,0,0-.108,1.506V14.44c0,.431-.018.922-.054,1.47s-.078,1.1-.126,1.653-.114,1.084-.2,1.6-.162.928-.234,1.24l-2.551.284c-.093-.623-.165-1.345-.213-2.171s-.072-1.551-.072-2.174V4.384a2.079,2.079,0,0,0-1.06-1.851,13.008,13.008,0,0,0-3.573-1.276L69.074,0q2.156.252,4.237.611t3.7.647a14.683,14.683,0,0,0-.287,1.581" transform="translate(99.162 0)"/>
        <path id="패스_135" data-name="패스 135" d="M79.757,17.546q-2.592.449-5.067.737v.755a19.843,19.843,0,0,1-.144,2.495,15.81,15.81,0,0,1-.392,2.1l-2.551.287c-.1-.6-.195-1.306-.287-2.117a19.243,19.243,0,0,1-.144-2.228v-.934l-2.587.216a4.453,4.453,0,0,0-2.333.827c-.458-.144-.958-.323-1.509-.539s-1.087-.437-1.614-.665-1.018-.449-1.473-.665-.815-.4-1.078-.539l.608-.967a7.95,7.95,0,0,0,1.258.284c.482.072.973.138,1.476.2s.979.1,1.434.108.85.018,1.186.018q4.955-.144,9.445-.557a87.472,87.472,0,0,0,9.158-1.348V16.45q-2.8.647-5.384,1.1m-5.283-14.9a5.676,5.676,0,0,0-.18.773,10.232,10.232,0,0,1,2.516.719A7.026,7.026,0,0,1,78.783,5.39a5.768,5.768,0,0,1,1.294,1.668,4.141,4.141,0,0,1,.467,1.923,4.49,4.49,0,0,1-.593,2.261A5.746,5.746,0,0,1,78.3,13.057a8.152,8.152,0,0,1-2.495,1.2,10.838,10.838,0,0,1-3.126.431,10.93,10.93,0,0,1-3.156-.431,8.17,8.17,0,0,1-2.5-1.2,5.581,5.581,0,0,1-1.635-1.815,4.6,4.6,0,0,1-.575-2.261,4.284,4.284,0,0,1,.5-2.03,5.711,5.711,0,0,1,1.4-1.707,7.906,7.906,0,0,1,2.135-1.255,9.733,9.733,0,0,1,2.749-.65,1.163,1.163,0,0,0-.341-.68,2.612,2.612,0,0,0-.985-.467l.392-.934,4.1.683a4.836,4.836,0,0,0-.29.7m2.318,4.633A3.95,3.95,0,0,0,75.858,6a4.337,4.337,0,0,0-1.4-.844,4.839,4.839,0,0,0-1.7-.305,4.566,4.566,0,0,0-1.671.305A4.433,4.433,0,0,0,69.716,6a3.942,3.942,0,0,0-.931,1.276,3.8,3.8,0,0,0-.344,1.635,3.794,3.794,0,0,0,1.276,2.89,4.341,4.341,0,0,0,1.366.809,4.754,4.754,0,0,0,1.671.287A4.624,4.624,0,0,0,75.9,11.817a3.662,3.662,0,0,0,1.237-2.908,3.842,3.842,0,0,0-.341-1.635M91.535,32.827q-4.923-.287-9.1-.2t-7.454.27a2.469,2.469,0,0,1-1.9-.467,1.73,1.73,0,0,1-.539-1.258V28.7a7.644,7.644,0,0,0-.087-1.294,1.521,1.521,0,0,0-.413-.827,2.575,2.575,0,0,0-.988-.554,16.051,16.051,0,0,0-1.776-.485l.608-1.222q1.366.144,3.159.323c1.2.12,2.252.252,3.162.4-.048.335-.09.764-.126,1.291s-.054,1.006-.054,1.437v2.228a1.064,1.064,0,0,0,.252.827,1.793,1.793,0,0,0,1,.252c.937.024,2,.018,3.2-.021s2.456-.087,3.773-.159,2.638-.174,3.968-.305S90.8,30.3,92,30.135ZM90.187,2.839a10.51,10.51,0,0,0-.126,1.506V19.325c0,.407-.018.931-.054,1.581s-.084,1.309-.141,1.991-.126,1.336-.2,1.959-.144,1.114-.213,1.47l-2.623.326c-.048-.338-.09-.737-.126-1.2s-.066-.952-.09-1.455-.042-.988-.054-1.455-.018-.865-.018-1.2c-.548.027-1.1.048-1.635.072s-.988.06-1.345.108a6.718,6.718,0,0,0-1.24.27,5.1,5.1,0,0,0-1.24.593c-.692-.287-1.384-.578-2.063-.88s-1.324-.59-1.923-.877l.572-.934c.818.12,1.629.2,2.447.249s1.542.063,2.189.039q.683-.036,1.8-.108c.743-.051,1.554-.132,2.441-.252V4.384a2.088,2.088,0,0,0-1.024-1.851,12.294,12.294,0,0,0-3.5-1.276L82.485,0q2.192.252,4.273.611t3.7.647c-.1.5-.189,1.03-.273,1.581" transform="translate(120.828 0)"/>
        <path id="패스_136" data-name="패스 136" d="M85.764,4.166a9.412,9.412,0,0,1,2.659.809,8.178,8.178,0,0,1,2.1,1.437,6.133,6.133,0,0,1,1.366,1.923,5.5,5.5,0,0,1,.485,2.261,5.364,5.364,0,0,1-.629,2.551,6.8,6.8,0,0,1-1.725,2.084,8.144,8.144,0,0,1-2.6,1.4,10.281,10.281,0,0,1-3.27.5,10.085,10.085,0,0,1-3.249-.5,7.926,7.926,0,0,1-2.566-1.4,6.692,6.692,0,0,1-1.692-2.084,5.652,5.652,0,0,1-.087-4.92,6.133,6.133,0,0,1,1.47-1.976,8.383,8.383,0,0,1,2.246-1.434,9.133,9.133,0,0,1,2.872-.722,1.2,1.2,0,0,0-.4-.755A3.276,3.276,0,0,0,81.6,2.8l.536-1.042q1.15.216,2.1.377t2.066.413a5.858,5.858,0,0,0-.539,1.614M88.441,8.6A4.772,4.772,0,0,0,87.417,7.04a5.015,5.015,0,0,0-1.491-1.024,4.312,4.312,0,0,0-1.779-.377,4.373,4.373,0,0,0-1.812.377A4.507,4.507,0,0,0,80.879,7.04a4.8,4.8,0,0,0-.97,1.563A5.4,5.4,0,0,0,79.55,10.6a5,5,0,0,0,.359,1.941,4.721,4.721,0,0,0,.97,1.491,4.279,4.279,0,0,0,1.455.97,5.027,5.027,0,0,0,3.627,0,4.474,4.474,0,0,0,1.473-.97,4.865,4.865,0,0,0,1.006-1.491,4.794,4.794,0,0,0,.377-1.941A5.172,5.172,0,0,0,88.441,8.6M102.088,20.87c-.108.452-.2.9-.27,1.327l-.5,2.875.97-.108-.219,2.189c-1.5-.072-2.938-.108-4.288-.108s-2.59.012-3.716.036-2.126.06-3,.108-1.575.084-2.1.108c0,.123-.012.293-.036.521a5.1,5.1,0,0,0-.039.593v2.048c0,.479.078.761.234.841a2.289,2.289,0,0,0,.955.126q1.321.04,3,0t3.5-.159q1.833-.126,3.737-.323t3.7-.485l-.611,2.728q-4.348-.18-8.28-.108t-7.274.252a2.1,2.1,0,0,1-1.794-.521,2.12,2.12,0,0,1-.5-1.416v-2.3a5.413,5.413,0,0,0-.09-1.078A1.462,1.462,0,0,0,85.1,27.3a2.4,2.4,0,0,0-.827-.518,12.348,12.348,0,0,0-1.452-.485l.572-1.117a63.651,63.651,0,0,0,7.651.4q3.737-.04,7.112-.252l.144-3.842q-1.545-.076-3.558,0c-1.339.045-2.635.117-3.878.213a12.366,12.366,0,0,0-1.384.216,7.3,7.3,0,0,0-1.743.719c-.862-.359-1.686-.719-2.477-1.075a16.049,16.049,0,0,1-2.012-1.078l.683-.934a18.786,18.786,0,0,0,2.731.413c1.006.084,1.926.126,2.764.126q2.8,0,5.926-.054t7.076-.377c-.12.359-.237.767-.341,1.222m.287-18.031a13.315,13.315,0,0,0-.09,1.506v8.083q0,.647-.054,1.473c-.039.548-.09,1.1-.165,1.653s-.141,1.081-.213,1.6-.144.928-.216,1.24l-2.551.323c-.1-.623-.171-1.348-.234-2.174s-.087-1.56-.087-2.207V4.384A2.07,2.07,0,0,0,97.7,2.533,12.872,12.872,0,0,0,94.17,1.258L94.706,0q2.156.252,4.222.611t3.68.647q-.144.755-.234,1.581" transform="translate(151.656 0)"/>
        <path id="패스_137" data-name="패스 137" d="M113.466,11.707q-3.912-.175-7.72-.1v4.381q1.509-.072,2.8-.09c.862-.012,1.578-.042,2.153-.09q2.516-.144,4.851-.323t4.7-.575l-.467,2.836q-1.8-.1-4.061-.18t-4.633,0c-1.006.024-2.24.051-3.7.072s-2.941.054-4.438.093-2.9.075-4.219.126-2.345.093-3.088.141a6.647,6.647,0,0,0-3.27,1.114q-1.577-.539-3.249-1.24T86.352,16.63l.536-1.078q.615.144,1.527.27t1.9.2c.659.048,1.291.09,1.9.126s1.12.054,1.524.054H95.4q.97,0,2.081-.018l2.354-.036q1.24-.018,2.5-.054V11.635q-1.689.076-3.159.126c-.982.039-1.893.078-2.731.126a2.292,2.292,0,0,1-1.958-.608,2.4,2.4,0,0,1-.593-1.617V5.209a7.015,7.015,0,0,0-.09-1.24,1.537,1.537,0,0,0-.431-.827,2.845,2.845,0,0,0-.967-.593A15.949,15.949,0,0,0,90.7,2.013L91.38.827a43.185,43.185,0,0,0,5.474.5q3.113.1,6.289.015t6.034-.305q2.852-.216,4.687-.5l-.575,2.692q-2.336-.108-4.582-.144t-4.288-.018q-2.048.018-3.827.09c-1.186.048-2.255.1-3.216.144v5.6c0,.5.069.809.2.916a1.781,1.781,0,0,0,.913.2q1.294.036,3.18-.018t4-.18c1.41-.084,2.839-.186,4.273-.305s2.791-.264,4.061-.431Zm-1.83,17.366a6.238,6.238,0,0,1-1.7,1.976,8.256,8.256,0,0,1-2.605,1.312,11,11,0,0,1-3.267.467,10.344,10.344,0,0,1-3.18-.467,7.867,7.867,0,0,1-2.516-1.312,6.172,6.172,0,0,1-1.65-1.976,5.131,5.131,0,0,1-.593-2.423,5.061,5.061,0,0,1,.608-2.426A6.472,6.472,0,0,1,98.4,22.251a8.145,8.145,0,0,1,2.516-1.33,9.885,9.885,0,0,1,3.144-.485,10.626,10.626,0,0,1,3.267.485,8.544,8.544,0,0,1,2.605,1.33,6.228,6.228,0,0,1,1.7,1.973,5.115,5.115,0,0,1,0,4.848m-3.375-4.345a4.405,4.405,0,0,0-2.408-2.333,4.558,4.558,0,0,0-1.761-.344,4.361,4.361,0,0,0-3.105,1.276,4.386,4.386,0,0,0-.934,1.4,4.581,4.581,0,0,0-.338,1.779,4.689,4.689,0,0,0,.338,1.794,4.306,4.306,0,0,0,.934,1.419,4.136,4.136,0,0,0,1.384.916,4.5,4.5,0,0,0,1.722.323,4.888,4.888,0,0,0,1.8-.323,4.276,4.276,0,0,0,1.437-.916,4.172,4.172,0,0,0,.952-1.419,4.634,4.634,0,0,0,.338-1.794,4.33,4.33,0,0,0-.356-1.779" transform="translate(172.243 1.077)"/>
      </g>
    </g>
  </g>
</svg>
