<svg xmlns="http://www.w3.org/2000/svg" width="834" height="8" viewBox="0 0 834 8">
    <path data-name="사각형 2694" style="fill:transparent" d="M0 0h834v8H0z"/>
    <g data-name="line_dot">
        <g data-name="그룹 11333">
            <path data-name="패스 116" d="M8.106 0 0 6.205l.74.969L8.846.969z" style="fill:#a9a9a9" transform="translate(1 .425)"/>
            <path data-name="사각형 2605" transform="rotate(-37.44 16.166 -15.528)" style="fill:#a9a9a9" d="M0 0h10.209v1.22H0z"/>
            <path data-name="사각형 2606" transform="rotate(-37.44 22.05 -32.893)" style="fill:#a9a9a9" d="M0 0h10.209v1.22H0z"/>
            <path data-name="사각형 2607" transform="rotate(-37.438 27.94 -50.268)" style="fill:#a9a9a9" d="M0 0h10.207v1.221H0z"/>
            <path data-name="사각형 2608" transform="rotate(-37.44 33.817 -67.626)" style="fill:#a9a9a9" d="M0 0h10.209v1.221H0z"/>
            <path data-name="사각형 2609" transform="rotate(-37.44 39.702 -84.996)" style="fill:#a9a9a9" d="M0 0h10.207v1.221H0z"/>
            <path data-name="사각형 2610" transform="rotate(-37.44 45.586 -102.36)" style="fill:#a9a9a9" d="M0 0h10.209v1.22H0z"/>
            <path data-name="사각형 2611" transform="rotate(-37.44 51.47 -119.729)" style="fill:#a9a9a9" d="M0 0h10.207v1.221H0z"/>
            <path data-name="사각형 2612" transform="rotate(-37.44 57.355 -137.095)" style="fill:#a9a9a9" d="M0 0h10.209v1.221H0z"/>
            <path data-name="사각형 2613" transform="rotate(-37.44 63.24 -154.463)" style="fill:#a9a9a9" d="M0 0h10.207v1.221H0z"/>
            <path data-name="사각형 2614" transform="rotate(-37.44 69.123 -171.83)" style="fill:#a9a9a9" d="M0 0h10.209v1.22H0z"/>
            <path data-name="사각형 2615" transform="rotate(-37.438 75.025 -189.224)" style="fill:#a9a9a9" d="M0 0h10.207v1.221H0z"/>
            <path data-name="사각형 2616" transform="rotate(-37.44 80.891 -206.563)" style="fill:#a9a9a9" d="M0 0h10.209v1.221H0z"/>
            <path data-name="사각형 2617" transform="rotate(-37.438 86.797 -223.963)" style="fill:#a9a9a9" d="M0 0h10.207v1.221H0z"/>
            <path data-name="사각형 2618" transform="rotate(-37.44 92.66 -241.298)" style="fill:#a9a9a9" d="M0 0h10.209v1.22H0z"/>
            <path data-name="사각형 2619" transform="rotate(-37.438 98.568 -258.701)" style="fill:#a9a9a9" d="M0 0h10.207v1.221H0z"/>
            <path data-name="사각형 2620" transform="rotate(-37.44 104.429 -276.032)" style="fill:#a9a9a9" d="M0 0h10.209v1.221H0z"/>
            <path data-name="사각형 2621" transform="rotate(-37.438 110.34 -293.442)" style="fill:#a9a9a9" d="M0 0h10.207v1.221H0z"/>
            <path data-name="사각형 2622" transform="rotate(-37.44 116.197 -310.767)" style="fill:#a9a9a9" d="M0 0h10.209v1.22H0z"/>
            <path data-name="사각형 2623" transform="rotate(-37.438 122.11 -328.18)" style="fill:#a9a9a9" d="M0 0h10.207v1.221H0z"/>
            <path data-name="사각형 2624" transform="rotate(-37.44 127.966 -345.5)" style="fill:#a9a9a9" d="M0 0h10.209v1.221H0z"/>
            <path data-name="사각형 2625" transform="rotate(-37.44 133.85 -362.867)" style="fill:#a9a9a9" d="M0 0h10.209v1.221H0z"/>
            <path data-name="사각형 2626" transform="rotate(-37.44 139.734 -380.235)" style="fill:#a9a9a9" d="M0 0h10.209v1.22H0z"/>
            <path data-name="사각형 2627" transform="rotate(-37.44 145.618 -397.6)" style="fill:#a9a9a9" d="M0 0h10.209v1.221H0z"/>
            <path data-name="사각형 2628" transform="rotate(-37.438 151.538 -415.025)" style="fill:#a9a9a9" d="M0 0h10.207v1.221H0z"/>
            <path data-name="사각형 2629" transform="rotate(-37.44 157.387 -432.336)" style="fill:#a9a9a9" d="M0 0h10.209v1.221H0z"/>
            <path data-name="사각형 2630" transform="rotate(-37.438 163.31 -449.765)" style="fill:#a9a9a9" d="M0 0h10.207v1.22H0z"/>
            <path data-name="사각형 2631" transform="rotate(-37.44 169.155 -467.07)" style="fill:#a9a9a9" d="M0 0h10.209v1.221H0z"/>
            <path data-name="사각형 2632" transform="rotate(-37.438 175.081 -484.504)" style="fill:#a9a9a9" d="M0 0h10.207v1.221H0z"/>
            <path data-name="사각형 2633" transform="rotate(-37.44 180.924 -501.804)" style="fill:#a9a9a9" d="M0 0h10.209v1.221H0z"/>
            <path data-name="사각형 2634" transform="rotate(-37.438 186.853 -519.244)" style="fill:#a9a9a9" d="M0 0h10.207v1.22H0z"/>
            <path data-name="사각형 2635" transform="rotate(-37.44 192.692 -536.537)" style="fill:#a9a9a9" d="M0 0h10.209v1.221H0z"/>
            <path data-name="사각형 2636" transform="rotate(-37.438 198.624 -553.982)" style="fill:#a9a9a9" d="M0 0h10.207v1.221H0z"/>
            <path data-name="사각형 2637" transform="rotate(-37.44 204.461 -571.273)" style="fill:#a9a9a9" d="M0 0h10.209v1.221H0z"/>
            <path data-name="사각형 2638" transform="rotate(-37.438 210.395 -588.721)" style="fill:#a9a9a9" d="M0 0h10.207v1.22H0z"/>
            <path data-name="사각형 2639" transform="rotate(-37.44 216.23 -606.006)" style="fill:#a9a9a9" d="M0 0h10.209v1.221H0z"/>
            <path data-name="사각형 2640" transform="rotate(-37.438 222.167 -623.46)" style="fill:#a9a9a9" d="M0 0h10.207v1.221H0z"/>
            <path data-name="사각형 2641" transform="rotate(-37.44 227.998 -640.74)" style="fill:#a9a9a9" d="M0 0h10.209v1.221H0z"/>
            <path data-name="사각형 2642" transform="rotate(-37.438 233.938 -658.2)" style="fill:#a9a9a9" d="M0 0h10.207v1.22H0z"/>
            <path data-name="사각형 2643" transform="rotate(-37.44 239.766 -675.474)" style="fill:#a9a9a9" d="M0 0h10.209v1.221H0z"/>
            <path data-name="사각형 2644" transform="rotate(-37.44 245.65 -692.84)" style="fill:#a9a9a9" d="M0 0h10.209v1.221H0z"/>
            <path data-name="사각형 2645" transform="rotate(-37.44 251.535 -710.21)" style="fill:#a9a9a9" d="M0 0h10.209v1.221H0z"/>
            <path data-name="사각형 2646" transform="rotate(-37.44 257.418 -727.574)" style="fill:#a9a9a9" d="M0 0h10.209v1.22H0z"/>
            <path data-name="사각형 2647" transform="rotate(-37.44 263.303 -744.942)" style="fill:#a9a9a9" d="M0 0h10.207v1.221H0z"/>
            <path data-name="사각형 2648" transform="rotate(-37.44 269.187 -762.308)" style="fill:#a9a9a9" d="M0 0h10.209v1.221H0z"/>
            <path data-name="사각형 2649" transform="rotate(-37.44 275.071 -779.676)" style="fill:#a9a9a9" d="M0 0h10.207v1.221H0z"/>
            <path data-name="사각형 2650" transform="rotate(-37.44 280.955 -797.043)" style="fill:#a9a9a9" d="M0 0h10.209v1.22H0z"/>
            <path data-name="사각형 2651" transform="rotate(-37.44 286.84 -814.41)" style="fill:#a9a9a9" d="M0 0h10.207v1.221H0z"/>
            <path data-name="사각형 2652" transform="rotate(-37.44 292.724 -831.776)" style="fill:#a9a9a9" d="M0 0h10.209v1.221H0z"/>
            <path data-name="사각형 2653" transform="rotate(-37.44 298.608 -849.144)" style="fill:#a9a9a9" d="M0 0h10.207v1.221H0z"/>
            <path data-name="사각형 2654" transform="rotate(-37.44 304.492 -866.51)" style="fill:#a9a9a9" d="M0 0h10.209v1.22H0z"/>
            <path data-name="사각형 2655" transform="rotate(-37.44 310.377 -883.879)" style="fill:#a9a9a9" d="M0 0h10.207v1.221H0z"/>
            <path data-name="사각형 2656" transform="rotate(-37.44 316.26 -901.246)" style="fill:#a9a9a9" d="M0 0h10.209v1.221H0z"/>
            <path data-name="사각형 2657" transform="rotate(-37.44 322.145 -918.614)" style="fill:#a9a9a9" d="M0 0h10.207v1.221H0z"/>
            <path data-name="사각형 2658" transform="rotate(-37.44 328.03 -935.98)" style="fill:#a9a9a9" d="M0 0h10.209v1.22H0z"/>
            <path data-name="사각형 2659" transform="rotate(-37.44 333.914 -953.347)" style="fill:#a9a9a9" d="M0 0h10.207v1.221H0z"/>
            <path data-name="사각형 2660" transform="rotate(-37.44 339.798 -970.713)" style="fill:#a9a9a9" d="M0 0h10.209v1.221H0z"/>
            <path data-name="사각형 2661" transform="rotate(-37.44 345.682 -988.081)" style="fill:#a9a9a9" d="M0 0h10.207v1.221H0z"/>
            <path data-name="사각형 2662" transform="rotate(-37.44 351.566 -1005.448)" style="fill:#a9a9a9" d="M0 0h10.209v1.22H0z"/>
            <path data-name="사각형 2663" transform="rotate(-37.44 357.45 -1022.812)" style="fill:#a9a9a9" d="M0 0h10.209v1.22H0z"/>
            <path data-name="사각형 2664" transform="rotate(-37.44 363.335 -1040.183)" style="fill:#a9a9a9" d="M0 0h10.209v1.221H0z"/>
            <path data-name="사각형 2665" transform="rotate(-37.44 369.218 -1057.548)" style="fill:#a9a9a9" d="M0 0h10.209v1.221H0z"/>
            <path data-name="사각형 2666" transform="rotate(-37.44 375.103 -1074.916)" style="fill:#a9a9a9" d="M0 0h10.207v1.22H0z"/>
            <path data-name="사각형 2667" transform="rotate(-37.44 380.987 -1092.28)" style="fill:#a9a9a9" d="M0 0h10.209v1.221H0z"/>
            <path data-name="사각형 2668" transform="rotate(-37.44 386.872 -1109.65)" style="fill:#a9a9a9" d="M0 0h10.207v1.221H0z"/>
            <path data-name="사각형 2669" transform="rotate(-37.44 392.755 -1127.015)" style="fill:#a9a9a9" d="M0 0h10.209v1.221H0z"/>
            <path data-name="사각형 2670" transform="rotate(-37.44 398.64 -1144.385)" style="fill:#a9a9a9" d="M0 0h10.208v1.221H0z"/>
            <path data-name="사각형 2671" transform="rotate(-37.44 404.524 -1161.75)" style="fill:#a9a9a9" d="M0 0h10.209v1.221H0z"/>
            <path data-name="사각형 2672" transform="rotate(-37.44 410.408 -1179.118)" style="fill:#a9a9a9" d="M0 0h10.207v1.221H0z"/>
            <path data-name="사각형 2673" transform="rotate(-37.44 416.293 -1196.485)" style="fill:#a9a9a9" d="M0 0h10.209v1.221H0z"/>
            <path data-name="사각형 2674" transform="rotate(-37.44 422.177 -1213.853)" style="fill:#a9a9a9" d="M0 0h10.208v1.221H0z"/>
        </g>
    </g>
</svg>
