<svg xmlns="http://www.w3.org/2000/svg" width="522" height="120" viewBox="0 0 522 120">
    <path data-name="사각형 1" style="fill:none" d="M0 0h522v120H0z"/>
    <g data-name="그룹 3">
        <path data-name="패스 1" d="M99.823 58.663A19.99 19.99 0 0 0 79.843 39H22.9V13.509A13.706 13.706 0 0 0 9.191 0H.013L0 100a20 20 0 0 0 20 20h59.843a19.99 19.99 0 0 0 19.985-19.783l.036-.036V58.7zM76.936 99.826a8.628 8.628 0 0 1-8.63 8.629H31.534a8.63 8.63 0 0 1-8.634-8.629V50.551h45.535a8.627 8.627 0 0 1 8.5 8.624z" style="fill:#004b9b" transform="translate(1)"/>
        <path data-name="패스 2" d="M442.76 51.437a19.987 19.987 0 0 0-19.981-19.663h-59.843a19.983 19.983 0 0 0-19.972 19.513l-.012.011-.011 41.476a20 20 0 0 0 20 20h59.843a19.992 19.992 0 0 0 19.987-19.783l.036-.037v-41.48zM419.876 92.6a8.632 8.632 0 0 1-8.632 8.63h-36.773a8.63 8.63 0 0 1-8.63-8.63V51.945a8.629 8.629 0 0 1 8.508-8.624h37.023a8.628 8.628 0 0 1 8.5 8.622z" transform="translate(78.832 7.211)" style="fill:#004b9b"/>
        <path data-name="패스 3" d="M321.84 101.228h-36.773a8.631 8.631 0 0 1-8.63-8.63V51.945a8.629 8.629 0 0 1 8.51-8.624h37.021a8.626 8.626 0 0 1 8.5 8.623v8.194H353.4v-8.665l-.04-.037a19.99 19.99 0 0 0-19.98-19.663h-59.848a19.984 19.984 0 0 0-19.972 19.513l-.015.011-.011 41.476a20 20 0 0 0 20 20h59.845a19.989 19.989 0 0 0 19.981-19.784l.037-.038V81.976h-22.928V92.6a8.629 8.629 0 0 1-8.629 8.63" transform="translate(58.541 7.211)" style="fill:#004b9b"/>
        <path data-name="패스 4" d="M112.306 92.6V77.042h76.967V51.474l-.043-.037a19.985 19.985 0 0 0-19.977-19.663H109.4a19.986 19.986 0 0 0-19.972 19.513l-.013.011v41.49a19.981 19.981 0 0 0 19.985 19.986l80.255-.04v-11.5l-68.717-.007a8.631 8.631 0 0 1-8.633-8.63m0-40.531v-.123a8.63 8.63 0 0 1 8.51-8.623h37.025a8.628 8.628 0 0 1 8.5 8.622v13.6H112.3z" transform="translate(21.293 7.211)" style="fill:#004b9b"/>
        <path data-name="패스 5" d="m216.859 82.7 19.385 21.734h26.28L230 67.969z" transform="translate(50.217 15.426)" style="fill:#004b9b"/>
        <path data-name="패스 6" d="M262.524 31.718h-26.28l-19.385 21.737L230 68.19z" transform="translate(50.217 7.199)" style="fill:#004b9b"/>
        <path data-name="패스 7" d="m203.241 67.432 13.138 14.734 13.141-14.734L216.379 52.7z" transform="translate(47.126 11.96)" style="fill:#40237b"/>
        <path data-name="패스 8" d="M200.1 31.718h-26.278l36.1 40.475 13.139-14.734z" transform="translate(40.45 7.199)" style="fill:#d90078"/>
        <path data-name="패스 9" d="M173.822 105.178H200.1l22.957-25.738-13.139-14.734z" transform="translate(40.45 14.685)" style="fill:#d90078"/>
    </g>
</svg>
