<svg xmlns="http://www.w3.org/2000/svg" width="216.931" height="50" viewBox="0 0 216.931 50">
    <path data-name="사각형 1" style="fill:none" d="M0 0h216.931v50H0z"/>
    <g data-name="그룹 3">
        <path data-name="패스 1" d="M41.593 24.443a8.329 8.329 0 0 0-8.325-8.193H9.542V5.631A5.711 5.711 0 0 0 3.83 0H.006L0 41.668A8.332 8.332 0 0 0 8.332 50h24.936a8.329 8.329 0 0 0 8.327-8.243l.015-.015V24.459zm-9.536 17.151a3.6 3.6 0 0 1-3.6 3.6H13.139a3.6 3.6 0 0 1-3.6-3.6V21.063h18.975a3.594 3.594 0 0 1 3.542 3.593z" style="fill:#004b9b"/>
        <path data-name="패스 2" d="M384.532 39.967a8.328 8.328 0 0 0-8.325-8.193h-24.936a8.326 8.326 0 0 0-8.321 8.126h-.005v17.282a8.332 8.332 0 0 0 8.331 8.333h24.935a8.33 8.33 0 0 0 8.328-8.243l.015-.015V39.982zM375 57.118a3.6 3.6 0 0 1-3.6 3.6h-15.322a3.6 3.6 0 0 1-3.6-3.6V40.179a3.6 3.6 0 0 1 3.545-3.593h15.426A3.6 3.6 0 0 1 375 40.179z" transform="translate(-167.618 -15.53)" style="fill:#004b9b"/>
        <path data-name="패스 3" d="M281.995 60.713h-15.322a3.6 3.6 0 0 1-3.6-3.6V40.178a3.6 3.6 0 0 1 3.546-3.593h15.425a3.594 3.594 0 0 1 3.542 3.593v3.414h9.553v-3.611l-.017-.015a8.329 8.329 0 0 0-8.325-8.193h-24.93a8.327 8.327 0 0 0-8.322 8.131h-.006v17.282a8.333 8.333 0 0 0 8.333 8.333H286.8a8.329 8.329 0 0 0 8.326-8.243l.015-.016v-4.569h-9.551v4.426a3.6 3.6 0 0 1-3.6 3.6" transform="translate(-123.92 -15.53)" style="fill:#004b9b"/>
        <path data-name="패스 4" d="M98.953 57.118v-6.482h32.07V39.982l-.023-.015a8.327 8.327 0 0 0-8.324-8.193H97.742a8.328 8.328 0 0 0-8.321 8.126h-.006v17.3a8.325 8.325 0 0 0 8.327 8.327l33.44-.017v-4.79H102.55a3.6 3.6 0 0 1-3.6-3.6m0-16.888v-.051a3.6 3.6 0 0 1 3.546-3.593h15.426a3.6 3.6 0 0 1 3.542 3.592v5.667H98.951z" transform="translate(-43.703 -15.53)" style="fill:#004b9b"/>
        <path data-name="패스 5" d="m216.859 74.108 8.077 9.056h10.95l-13.552-15.2z" transform="translate(-105.994 -33.221)" style="fill:#004b9b"/>
        <path data-name="패스 6" d="M235.886 31.718h-10.95l-8.077 9.057 5.475 6.139z" transform="translate(-105.994 -15.503)" style="fill:#004b9b"/>
        <path data-name="패스 7" d="m203.241 58.836 5.474 6.139 5.475-6.139-5.475-6.136z" transform="translate(-99.338 -25.757)" style="fill:#40237b"/>
        <path data-name="패스 8" d="M184.772 31.718h-10.95l15.04 16.864 5.475-6.139z" transform="translate(-84.959 -15.503)" style="fill:#d90078"/>
        <path data-name="패스 9" d="M173.822 81.569h10.951l9.564-10.724-5.475-6.139z" transform="translate(-84.959 -31.626)" style="fill:#d90078"/>
    </g>
</svg>
