<svg xmlns="http://www.w3.org/2000/svg" width="348" height="80" viewBox="0 0 348 80">
    <path data-name="사각형 1" style="fill:none" d="M0 0h348v80H0z"/>
    <g data-name="그룹 3">
        <path data-name="패스 1" d="M66.548 39.109A13.327 13.327 0 0 0 53.229 26H15.267V9.01A9.138 9.138 0 0 0 6.127 0H.009L0 66.669A13.331 13.331 0 0 0 13.331 80h39.9a13.327 13.327 0 0 0 13.321-13.189l.024-.024V39.135zM51.291 66.551a5.752 5.752 0 0 1-5.754 5.749H21.023a5.754 5.754 0 0 1-5.755-5.753V33.7h30.355a5.751 5.751 0 0 1 5.668 5.75z" style="fill:#004b9b" transform="translate(.456)"/>
        <path data-name="패스 2" d="M409.487 44.883a13.325 13.325 0 0 0-13.321-13.109h-39.9a13.322 13.322 0 0 0-13.315 13.009l-.008.007-.007 27.651a13.331 13.331 0 0 0 13.33 13.332h39.9a13.328 13.328 0 0 0 13.325-13.189l.024-.025V44.907zm-15.256 27.441a5.755 5.755 0 0 1-5.754 5.754h-24.516a5.753 5.753 0 0 1-5.754-5.754v-27.1a5.753 5.753 0 0 1 5.672-5.75h24.682a5.752 5.752 0 0 1 5.669 5.748z" transform="translate(-61.97 -5.784)" style="fill:#004b9b"/>
        <path data-name="패스 3" d="M299.071 78.077h-24.515a5.754 5.754 0 0 1-5.754-5.754v-27.1a5.753 5.753 0 0 1 5.673-5.75h24.681a5.75 5.75 0 0 1 5.668 5.749v5.462h15.285v-5.778l-.027-.025a13.327 13.327 0 0 0-13.32-13.109h-39.9a13.323 13.323 0 0 0-13.315 13.009l-.01.007-.007 27.651a13.332 13.332 0 0 0 13.332 13.333h39.9a13.326 13.326 0 0 0 13.322-13.189l.025-.025v-7.316h-15.285v7.081a5.753 5.753 0 0 1-5.753 5.754" transform="translate(-45.695 -5.784)" style="fill:#004b9b"/>
        <path data-name="패스 4" d="M104.676 72.324V61.953h51.311V44.907l-.029-.025a13.323 13.323 0 0 0-13.318-13.109h-39.9a13.324 13.324 0 0 0-13.316 13.01l-.009.007v27.66a13.32 13.32 0 0 0 13.324 13.324l53.5-.027v-7.664h-45.811a5.754 5.754 0 0 1-5.755-5.754m0-27.021v-.082a5.753 5.753 0 0 1 5.673-5.749h24.682a5.752 5.752 0 0 1 5.668 5.748v9.067h-36.023z" transform="translate(-15.82 -5.784)" style="fill:#004b9b"/>
        <path data-name="패스 5" d="m216.859 77.792 12.923 14.49H247.3l-21.681-24.313z" transform="translate(-39.019 -12.372)" style="fill:#004b9b"/>
        <path data-name="패스 6" d="M247.3 31.718h-17.52l-12.921 14.491 8.76 9.823z" transform="translate(-39.019 -5.774)" style="fill:#004b9b"/>
        <path data-name="패스 7" d="M203.241 62.52 212 72.343l8.76-9.823L212 52.7z" transform="translate(-36.54 -9.592)" style="fill:#40237b"/>
        <path data-name="패스 8" d="M191.343 31.718h-17.521L197.886 58.7l8.76-9.823z" transform="translate(-31.185 -5.774)" style="fill:#d90078"/>
        <path data-name="패스 9" d="M173.822 91.687h17.521l15.3-17.159-8.76-9.823z" transform="translate(-31.185 -11.778)" style="fill:#d90078"/>
    </g>
</svg>
